<svg width="973" height="648" viewBox="0 0 973 648" fill="none" xmlns="http://www.w3.org/2000/svg">
<g clip-path="url(#clip0_100_34)">
<path d="M457.436 344.496C457.436 353.984 435.465 364.969 391.524 377.452C395.519 429.383 397.516 473.574 397.516 510.025C397.516 572.941 389.527 604.399 373.548 604.399C365.059 604.399 358.318 599.156 353.325 588.67C348.332 578.184 344.337 559.959 341.341 533.993C337.846 486.057 334.101 439.12 330.106 393.181C307.636 399.173 287.163 404.666 268.688 409.659C250.213 414.153 222.25 421.643 184.8 432.129C140.859 546.976 114.893 604.399 106.904 604.399C98.9147 604.399 90.1763 599.656 80.689 590.168C71.701 580.182 67.207 569.696 67.207 558.71C67.207 553.717 81.438 518.264 109.9 452.352H104.657C94.6703 452.352 85.6823 449.107 77.693 442.615C70.203 436.124 66.458 428.135 66.458 418.647C66.458 408.661 91.175 395.678 140.609 379.699C148.598 361.723 155.09 345.495 160.083 331.014C171.568 302.552 187.546 263.604 208.019 214.17C228.492 164.736 241.474 133.278 246.967 119.796C252.46 105.815 261.947 94.0806 275.429 84.5933C289.41 74.6066 302.892 69.6133 315.875 69.6133C331.354 69.6133 345.086 94.3303 357.07 143.764C369.553 193.198 379.54 254.367 387.03 327.269C401.011 325.771 413.245 325.022 423.731 325.022C446.201 325.022 457.436 331.514 457.436 344.496ZM212.513 360.225C247.966 350.738 285.416 342.749 324.863 336.257C315.875 250.871 307.137 186.707 298.648 143.764C276.178 195.196 247.466 267.349 212.513 360.225Z" fill="#3E3BDF"/>
<path d="M771.899 53.6C785.766 53.6 799.899 62.4 814.299 80C829.233 97.6 836.699 112.267 836.699 124C836.699 135.2 834.566 140.8 830.299 140.8C826.566 140.8 819.099 138.933 807.899 135.2C796.699 130.933 786.566 128.8 777.499 128.8C756.699 128.8 731.366 139.467 701.499 160.8C672.166 182.133 644.166 208.533 617.499 240C591.366 271.467 568.966 307.467 550.299 348C531.633 388 522.299 422.667 522.299 452C522.299 481.333 529.766 502.933 544.699 516.8C560.166 530.133 580.166 536.8 604.699 536.8C629.233 536.8 654.566 533.333 680.699 526.4C706.833 518.933 728.166 510.667 744.699 501.6C787.366 478.667 810.833 467.2 815.099 467.2C824.166 467.2 828.699 473.333 828.699 485.6C828.699 497.333 816.433 513.333 791.899 533.6C767.366 553.333 736.966 571.2 700.699 587.2C664.433 603.2 631.899 611.2 603.099 611.2C565.766 611.2 530.566 595.2 497.499 563.2C464.433 530.667 447.899 494.933 447.899 456C447.899 405.867 464.166 349.333 496.699 286.4C529.766 222.933 571.899 168.267 623.099 122.4C674.833 76.5333 724.433 53.6 771.899 53.6Z" fill="#3E3BDF"/>
</g>
<defs>
<clipPath id="clip0_100_34">
<rect width="973" height="648" fill="white"/>
</clipPath>
</defs>
</svg>
